# xmcd CD database file
#
# Track frame offsets:
#	150
#	28140
#	52587
#	83271
#	98608
#	114850
#	144997
#	157499
#
# Disc length: 2308 seconds
#
# Revision: 0
# Processed by: cddbd v1.5PL3 Copyright (c) Steve Scherf et al.
# Submitted via: CDex 1.51
#
DISCID=53090208
DTITLE=Pacific Gas and Electric - Get It On...
DYEAR=1968
DGENRE=Blues
TTITLE0=Wade in the Water
TTITLE1=Cry, Cry, Cry
TTITLE2=Motor City's Burning
TTITLE3=The Hunter
TTITLE4=Long Handled Shovel
TTITLE5=Jelly Jelly
TTITLE6=Stormy Times
TTITLE7=Live Love
EXTD=YEAR: 1968
EXTT0=
EXTT1=
EXTT2=
EXTT3=
EXTT4=
EXTT5=
EXTT6=
EXTT7=
PLAYORDER=
